<!-- sample rectangle -->
<svg width="120" height="45" xmlns="http://www.w3.org/2000/svg">
  <g transform="scale(1)"><g><path fill="#00b4d8" d="M5.58 0.42L5.58 0.42Q2.16 0.42 0.78-2.82L0.78-2.82 0.78-7.2Q0.78-11.7 0.87-16.41 0.96-21.12 1.62-25.62L1.62-25.62Q1.74-26.34 2.76-28.44L2.76-28.44Q3.6-30.24 3.6-31.44L3.6-31.44Q3.6-31.86 3.21-33.03 2.82-34.2 2.82-34.38L2.82-34.38Q2.82-36.12 4.29-37.26 5.76-38.4 7.62-38.4L7.62-38.4Q9-38.4 10.11-37.47 11.22-36.54 11.22-34.8L11.22-34.8Q11.22-33.9 10.62-32.94 10.02-31.98 10.02-30.78L10.02-30.78Q10.02-29.58 10.62-28.65 11.22-27.72 11.22-26.82L11.22-26.82 11.22-6.42Q11.22-3.54 9.78-1.68L9.78-1.68Q8.16 0.42 5.58 0.42ZM22.98-0.42L22.98-0.42Q17.28-0.42 14.64-5.4L14.64-5.4Q12.54-9.24 12.54-15.18L12.54-15.18Q12.54-25.2 15-30.24L15-30.24Q16.86-34.02 20.16-34.02L20.16-34.02Q22.56-34.02 23.76-32.46 24.96-30.9 24.96-28.8L24.96-28.8Q24.96-26.22 24.18-22.5L24.18-22.5Q23.82-20.94 23.58-19.41 23.34-17.88 23.34-13.98L23.34-13.98Q23.34-13.62 24.54-13.62L24.54-13.62Q25.44-13.62 25.98-14.52L25.98-14.52Q26.76-15.78 27.78-19.44L27.78-19.44Q29.34-25.2 33.36-25.2L33.36-25.2Q35.34-25.2 36.48-24.48 37.62-23.76 38.25-22.71 38.88-21.66 39.12-20.4 39.36-19.14 39.54-18.09 39.72-17.04 39.99-16.32 40.26-15.6 40.98-15.6L40.98-15.6Q41.7-15.6 42.06-16.17 42.42-16.74 42.51-17.55 42.6-18.36 42.6-19.2L42.6-19.2 42.54-20.4Q42.54-22.2 42.36-23.73 42.18-25.26 42.18-26.82L42.18-26.82Q42.18-28.98 43.77-30.69 45.36-32.4 47.34-32.4L47.34-32.4Q50.28-32.4 51.66-29.22L51.66-29.22Q52.56-27 52.56-23.58L52.56-23.58Q52.56-16.02 49.8-9.78L49.8-9.78Q46.32-1.98 39.78-1.98L39.78-1.98Q38.16-1.98 35.67-3.18 33.18-4.38 31.74-4.38L31.74-4.38Q30.54-4.38 29.52-3.75 28.5-3.12 27.51-2.4 26.52-1.68 25.44-1.05 24.36-0.42 22.98-0.42ZM73.5 1.2L73.5 1.2Q71.82 1.2 70.89 0.39 69.96-0.42 69.45-1.62 68.94-2.82 68.64-4.2 68.34-5.58 67.86-6.78 67.38-7.98 66.6-8.79 65.82-9.6 64.32-9.6L64.32-9.6Q63.12-9.6 62.46-9.03 61.8-8.46 61.38-7.62 60.96-6.78 60.66-5.79 60.36-4.8 59.91-3.96 59.46-3.12 58.74-2.55 58.02-1.98 56.7-1.98L56.7-1.98Q54.3-1.98 53.1-3.57 51.9-5.16 51.9-7.62L51.9-7.62Q51.9-13.44 52.56-18.9L52.56-18.9Q53.58-27.24 56.1-32.34L56.1-32.34Q59.22-38.82 64.74-38.82L64.74-38.82Q69.24-38.82 72.6-31.62L72.6-31.62Q75.18-25.86 76.74-16.62L76.74-16.62Q77.94-9.06 77.94-4.02L77.94-4.02Q77.94-2.16 76.59-0.48 75.24 1.2 73.5 1.2ZM82.56 1.2L82.56 1.2Q79.2 1.2 78.54-2.82L78.54-2.82Q78.54-7.32 78.15-11.4 77.76-15.48 77.76-19.98L77.76-19.98Q77.76-23.94 78.15-27.6 78.54-31.26 78.54-35.22L78.54-35.22Q78.54-36.6 80.22-37.8L80.22-37.8Q81.72-38.82 83.34-38.82L83.34-38.82Q84.54-38.82 85.38-38.07 86.22-37.32 86.97-36.42 87.72-35.52 88.53-34.77 89.34-34.02 90.54-34.02L90.54-34.02Q91.8-34.02 93.96-35.01 96.12-36 97.38-36L97.38-36Q99.48-36 100.62-34.86 101.76-33.72 101.76-31.62L101.76-31.62Q101.76-28.26 96.36-25.2L96.36-25.2Q94.98-24.42 93.78-23.64L93.78-23.64Q90.96-21.78 90.96-19.98L90.96-19.98Q90.96-19.2 92.16-18.06L92.16-18.06Q92.58-17.58 99.78-13.98L99.78-13.98Q102.18-12.54 102.18-9.6L102.18-9.6Q102.18-7.5 101.01-5.94 99.84-4.38 97.74-4.38L97.74-4.38Q95.94-4.38 94.14-4.98 92.34-5.58 90.54-5.58L90.54-5.58Q89.58-5.58 88.98-5.1L88.98-5.1Q87.96-4.26 87.06-2.22L87.06-2.22Q85.5 1.2 82.56 1.2ZM107.88 0.42L107.88 0.42Q104.46 0.42 103.08-2.82L103.08-2.82 103.08-7.2Q103.08-11.7 103.17-16.41 103.26-21.12 103.92-25.62L103.92-25.62Q104.04-26.34 105.06-28.44L105.06-28.44Q105.9-30.24 105.9-31.44L105.9-31.44Q105.9-31.86 105.51-33.03 105.12-34.2 105.12-34.38L105.12-34.38Q105.12-36.12 106.59-37.26 108.06-38.4 109.92-38.4L109.92-38.4Q111.3-38.4 112.41-37.47 113.52-36.54 113.52-34.8L113.52-34.8Q113.52-33.9 112.92-32.94 112.32-31.98 112.32-30.78L112.32-30.78Q112.32-29.58 112.92-28.65 113.52-27.72 113.52-26.82L113.52-26.82 113.52-6.42Q113.52-3.54 112.08-1.68L112.08-1.68Q110.46 0.42 107.88 0.42Z" transform="translate(-0.7799999713897705, 38.81999969482422)"></path></g> <!----> <!----> <!----> <!----> <!----> <!----> <!----></g>
</svg>